<svg xmlns="http://www.w3.org/2000/svg" width="160" height="160" viewBox="0 0 160 160">
<g>
<path d="M 158.71 66.25 C159.02,68.86 159.44,71.00 159.64,71.00 C159.84,71.00 160.00,55.03 160.00,35.50 L 160.00 160.00 L 0.00 160.00 L 0.00 0.00 L 160.00 0.00 L 121.25 0.14 C97.11,0.22 85.23,0.56 89.73,1.03 C99.23,2.03 109.96,5.32 118.00,9.69 C125.12,13.57 135.87,21.75 138.89,25.59 L 140.81 28.03 L 143.83 25.02 C147.51,21.34 149.92,21.22 153.85,24.53 C158.12,28.12 158.57,31.63 155.91,40.58 L 153.66 48.16 L 155.90 54.83 C157.13,58.50 158.39,63.64 158.71,66.25 ZM 104.79 122.50 C108.33,124.91 112.01,125.80 111.99,124.25 C111.99,123.84 110.19,122.47 107.99,121.22 C105.80,119.97 104.04,118.39 104.08,117.72 C104.22,115.80 111.79,109.75 113.08,110.55 C113.81,111.00 114.06,113.21 113.78,116.64 C113.22,123.42 114.45,124.77 119.78,123.22 C121.83,122.63 126.02,121.84 129.11,121.47 C133.73,120.92 134.82,121.09 135.32,122.40 C136.25,124.80 140.00,124.45 140.00,121.96 C140.00,120.01 140.14,120.02 143.73,122.46 C147.49,125.02 152.00,125.86 152.00,124.00 C152.00,123.45 151.33,123.00 150.52,123.00 C149.70,123.00 147.65,121.76 145.97,120.25 L 142.90 117.50 L 149.45 110.80 C156.45,103.64 157.58,100.40 154.35,96.83 C152.15,94.40 146.01,94.45 141.15,96.92 C137.40,98.84 137.38,98.83 136.10,96.79 C134.94,94.93 134.13,94.78 128.00,95.30 C124.25,95.61 120.27,96.44 119.15,97.14 C117.44,98.21 116.81,98.14 115.23,96.71 C111.62,93.44 101.05,95.62 97.04,100.45 C95.85,101.88 95.52,101.73 93.89,99.05 C90.43,93.36 83.51,93.77 79.45,99.90 C77.13,103.40 76.95,104.40 77.46,110.88 L 78.03 118.00 L 73.52 118.00 C70.50,118.00 69.00,117.57 69.00,116.71 C69.00,115.51 72.90,103.38 74.39,99.94 C74.82,98.96 74.26,97.64 72.93,96.44 C70.79,94.51 70.78,94.51 68.11,97.70 C65.47,100.86 65.42,100.87 64.47,98.72 C63.94,97.52 62.38,95.97 61.00,95.28 C58.69,94.12 58.66,94.03 60.62,94.01 C62.54,94.00 62.81,93.26 63.44,86.05 C64.01,79.41 64.45,77.99 66.06,77.48 C67.13,77.14 68.00,76.45 68.00,75.93 C68.00,75.42 68.76,75.00 69.69,75.00 C72.40,75.00 84.21,67.41 90.85,61.40 C94.21,58.36 98.20,53.65 99.73,50.94 C101.25,48.22 102.85,46.00 103.29,46.00 C103.72,46.00 103.51,47.01 102.83,48.25 C102.15,49.49 101.51,50.95 101.41,51.50 C101.31,52.05 100.18,55.88 98.89,60.00 C97.34,64.95 96.54,70.00 96.52,74.85 L 96.50 82.20 L 100.50 85.59 C105.10,89.47 110.43,90.15 113.62,87.25 C116.54,84.59 123.09,76.34 128.84,68.09 C131.68,64.02 134.00,61.32 134.00,62.09 C134.00,62.87 133.36,66.88 132.58,71.00 C131.29,77.80 130.66,84.65 130.91,89.21 C131.02,91.38 135.95,96.00 138.14,96.00 C139.40,96.00 140.07,94.40 140.96,89.25 C142.11,82.66 148.34,58.27 153.37,40.71 L 155.89 31.92 L 153.84 28.46 C150.77,23.25 145.85,24.17 143.64,30.38 C141.61,36.07 110.95,78.00 108.82,78.00 C108.35,78.00 108.18,76.99 108.45,75.75 C111.92,59.73 115.60,47.92 119.65,39.78 C120.94,37.19 122.00,34.41 122.00,33.60 C122.00,31.67 116.32,27.66 114.55,28.34 C113.79,28.63 111.47,31.94 109.38,35.69 C107.30,39.43 105.24,42.65 104.79,42.84 C104.35,43.02 104.24,43.58 104.55,44.09 C104.86,44.59 104.68,45.00 104.15,45.00 C103.62,45.00 103.40,43.32 103.67,41.25 C104.20,37.00 101.05,31.33 95.79,27.09 C89.53,22.05 76.15,23.92 63.34,31.64 C57.01,35.45 56.56,35.59 57.37,33.48 C57.72,32.56 56.53,30.38 54.34,27.96 C51.04,24.30 50.42,24.02 47.12,24.62 C33.67,27.06 16.17,44.68 9.45,62.55 C6.31,70.89 5.83,79.57 8.32,83.36 C10.17,86.18 16.34,90.49 19.55,91.21 C22.12,91.78 26.72,89.51 30.75,85.69 L 34.00 82.61 L 34.00 85.90 C34.00,88.31 34.85,89.99 37.15,92.14 C41.37,96.08 43.42,95.57 43.79,90.49 C43.95,88.30 44.76,82.68 45.59,78.00 C49.06,58.34 49.11,57.84 47.92,56.40 C47.08,55.39 47.07,55.00 47.88,55.00 C48.49,55.00 49.00,55.45 49.00,56.00 C49.00,56.55 50.08,57.00 51.39,57.00 C53.65,57.00 53.74,57.22 52.91,60.75 C52.42,62.81 51.73,69.77 51.36,76.21 L 50.70 87.91 L 53.99 90.99 C55.79,92.68 57.10,94.19 56.89,94.36 C56.67,94.52 54.95,95.27 53.07,96.03 C50.46,97.07 49.54,97.11 49.23,96.20 C48.50,94.00 45.62,94.97 41.79,98.70 C38.47,101.95 38.00,102.15 38.00,100.33 C38.00,97.84 35.56,95.57 33.67,96.30 C32.62,96.70 32.48,98.09 33.07,102.41 C33.78,107.67 33.62,108.34 30.23,114.05 C27.31,118.97 26.47,119.80 25.72,118.47 C25.02,117.21 23.63,116.91 19.65,117.17 C14.68,117.49 14.49,117.40 14.18,114.75 C13.93,112.56 14.40,111.80 16.50,111.00 C17.95,110.45 20.11,109.99 21.32,109.98 C22.52,109.98 24.15,109.56 24.94,109.06 C27.18,107.64 24.53,105.17 20.37,104.81 C17.19,104.53 17.01,104.35 18.25,102.66 C19.01,101.63 21.75,100.41 24.47,99.91 C30.31,98.82 30.68,98.52 28.92,96.40 C27.79,95.04 26.32,94.85 20.60,95.33 C16.78,95.65 13.13,96.49 12.49,97.21 C11.85,97.92 10.50,100.75 9.50,103.50 C8.50,106.25 7.37,108.72 6.98,109.00 C6.59,109.28 6.58,111.85 6.95,114.73 C7.33,117.61 7.25,120.35 6.78,120.82 C6.29,121.31 6.61,122.26 7.49,122.99 C8.71,124.01 9.90,124.05 12.78,123.20 C19.09,121.34 26.67,120.66 27.43,121.89 C28.75,124.02 31.04,122.98 32.70,119.50 C34.45,115.83 36.00,114.92 36.00,117.55 C36.00,119.53 40.72,124.29 41.95,123.53 C42.50,123.19 42.33,121.63 41.54,119.73 C39.67,115.25 38.60,107.37 39.76,106.65 C40.28,106.33 41.53,106.67 42.53,107.40 C44.01,108.48 44.31,109.90 44.11,114.87 C43.93,119.25 44.29,121.43 45.36,122.50 C47.86,125.00 50.00,124.35 50.00,121.10 C50.00,118.73 50.80,117.72 54.33,115.65 C56.71,114.26 59.24,112.41 59.95,111.56 C62.22,108.82 63.21,109.79 62.49,114.06 C62.06,116.58 62.28,119.26 63.06,121.14 C64.23,123.97 64.54,124.11 67.91,123.36 C72.45,122.33 81.00,122.32 83.11,123.33 C85.34,124.41 90.45,119.93 92.63,114.97 C94.71,110.27 95.52,110.64 95.13,116.09 C94.83,120.24 96.23,123.00 98.62,123.00 C99.38,123.00 100.00,122.32 100.00,121.50 C100.00,119.48 100.50,119.59 104.79,122.50 ZM 0.13 38.75 C0.22,63.58 0.55,75.05 1.06,70.68 C5.29,34.23 34.23,5.29 70.68,1.06 C75.05,0.55 63.58,0.22 38.75,0.13 L 0.00 0.00 ZM 0.13 121.25 L 0.00 160.00 L 35.75 159.92 C67.91,159.85 70.90,159.71 65.50,158.51 C47.04,154.43 32.42,146.04 20.44,132.64 C15.06,126.63 14.22,126.06 11.47,126.57 C9.33,126.97 7.71,126.56 5.94,125.17 C3.63,123.35 3.45,122.62 3.62,115.67 C3.72,111.52 4.05,107.73 4.35,107.24 C4.66,106.75 4.23,104.13 3.41,101.42 C2.59,98.71 1.55,93.35 1.09,89.50 C0.53,84.78 0.22,95.12 0.13,121.25 ZM 95.50 158.51 C90.10,159.71 93.00,159.85 124.75,159.92 L 160.00 160.00 L 159.88 124.75 C159.82,103.99 159.44,91.14 158.97,93.50 C158.52,95.70 158.39,98.47 158.67,99.66 C159.00,101.07 157.43,104.98 154.17,110.89 L 149.16 119.97 L 151.83 121.24 C157.90,124.14 153.58,130.95 147.44,128.15 C145.13,127.10 144.62,127.29 142.19,130.16 C140.71,131.91 138.94,134.12 138.26,135.07 C136.10,138.11 124.75,146.63 118.00,150.30 C110.75,154.23 104.42,156.54 95.50,158.51 ZM 74.88 61.08 C71.24,63.78 67.96,66.00 67.61,66.00 C66.87,66.00 67.22,64.28 70.61,51.00 C71.95,45.78 73.45,40.77 73.95,39.88 C74.52,38.86 74.47,37.87 73.82,37.22 C71.92,35.32 85.11,30.64 92.50,30.60 C94.23,30.59 94.49,31.23 94.44,35.27 C94.34,42.49 87.20,51.91 74.88,61.08 ZM 30.52 68.29 C23.67,76.32 20.00,79.23 20.00,76.64 C20.00,74.45 25.74,60.83 27.33,59.24 C28.54,58.03 29.32,58.03 32.89,59.24 L 37.04 60.64 ZM 45.77 49.81 C44.75,52.49 44.08,52.98 41.53,52.85 C36.22,52.59 33.00,51.89 33.00,51.01 C33.00,49.83 42.03,40.00 43.12,40.00 C43.60,40.00 44.00,40.75 44.00,41.67 C44.00,42.59 44.67,44.08 45.48,44.98 C46.71,46.34 46.76,47.18 45.77,49.81 ZM 134.69 109.35 C134.96,109.62 134.79,112.24 134.31,115.17 C133.70,118.96 133.24,119.97 132.72,118.66 C132.11,117.12 131.08,116.88 126.25,117.16 C120.64,117.49 120.51,117.44 120.78,115.02 C120.93,113.66 121.40,112.20 121.83,111.77 C122.79,110.81 134.03,108.69 134.69,109.35 ZM 91.57 107.46 C91.24,109.21 90.40,111.44 89.70,112.39 C88.50,114.04 88.34,114.03 86.74,112.26 C85.14,110.50 85.16,110.18 87.01,106.72 L 88.97 103.06 L 86.87 101.93 C84.92,100.89 84.89,100.68 86.40,99.17 C87.66,97.92 88.44,97.79 89.77,98.62 C91.79,99.88 92.42,102.96 91.57,107.46 ZM 57.15 106.25 C53.11,110.51 51.47,111.03 52.41,107.75 C52.76,106.51 53.30,104.35 53.61,102.94 C53.96,101.37 55.22,99.98 56.86,99.36 C62.85,97.10 62.98,100.12 57.15,106.25 ZM 111.33 101.02 C110.35,102.68 107.82,105.72 105.70,107.77 L 101.85 111.50 L 103.83 106.25 C104.92,103.36 105.51,100.98 105.15,100.96 C103.71,100.89 109.63,98.07 111.31,98.04 C113.04,98.00 113.04,98.12 111.33,101.02 ZM 134.10 102.60 C132.53,104.59 131.03,105.33 128.36,105.40 C124.87,105.50 123.19,104.12 124.41,102.15 C125.12,100.99 134.89,98.55 135.67,99.33 C135.98,99.64 135.27,101.11 134.10,102.60 ZM 151.00 99.56 C151.00,101.33 142.06,111.11 142.02,109.38 C141.98,107.09 146.05,99.19 147.58,98.61 C150.10,97.64 151.00,97.89 151.00,99.56 ZM 87.00 117.00 C86.41,118.10 85.50,119.00 84.96,119.00 C84.43,119.00 84.00,118.10 84.00,117.00 C84.00,115.66 84.67,115.00 86.04,115.00 C87.76,115.00 87.91,115.30 87.00,117.00 Z" fill="rgb(8,2,2)"/>
<path d="M 54.23 91.22 C55.70,92.37 57.36,93.00 58.95,93.00 L 62.00 93.00 L 62.01 86.75 C62.03,78.70 62.72,76.31 65.19,75.66 C66.46,75.33 66.92,74.69 66.44,73.91 C65.91,73.04 66.30,72.85 67.82,73.24 C70.33,73.90 78.06,69.51 86.56,62.58 C96.90,54.15 102.00,46.11 102.00,38.21 C102.00,33.91 101.55,32.88 98.25,29.56 C96.88,28.18 95.22,26.79 93.88,25.87 C94.58,26.22 95.22,26.63 95.79,27.09 C101.05,31.33 104.20,37.00 103.67,41.25 C103.40,43.32 103.62,45.00 104.15,45.00 C104.68,45.00 104.86,44.59 104.55,44.09 C104.24,43.58 104.35,43.02 104.79,42.84 C105.24,42.65 107.30,39.43 109.38,35.69 C109.51,35.46 109.64,35.23 109.77,35.00 C109.05,36.33 108.22,37.90 107.27,39.73 C104.15,45.73 101.74,51.25 100.00,56.38 C100.78,53.84 101.34,51.88 101.41,51.50 C101.51,50.95 102.15,49.49 102.83,48.25 C103.51,47.01 103.72,46.00 103.29,46.00 C102.85,46.00 101.25,48.22 99.73,50.94 C98.20,53.65 94.21,58.36 90.85,61.40 C84.21,67.41 72.40,75.00 69.69,75.00 C68.76,75.00 68.00,75.42 68.00,75.93 C68.00,76.45 67.13,77.14 66.06,77.48 C64.45,77.99 64.01,79.41 63.44,86.05 C62.81,93.26 62.54,94.00 60.62,94.01 C58.66,94.03 58.69,94.12 61.00,95.28 C61.38,95.47 61.78,95.73 62.16,96.03 C60.07,94.99 57.09,94.74 54.17,95.58 C55.58,94.99 56.72,94.49 56.89,94.36 C57.09,94.20 55.91,92.81 54.23,91.22 ZM 153.26 27.57 C153.46,27.84 153.66,28.14 153.84,28.46 L 155.89 31.92 L 153.37 40.71 C148.34,58.27 142.11,82.66 140.96,89.25 C140.07,94.40 139.40,96.00 138.14,96.00 C137.17,96.00 135.66,95.09 134.27,93.89 C137.19,96.13 138.33,94.30 140.02,86.00 C141.97,76.43 148.66,50.59 152.33,38.50 C154.50,31.34 154.61,30.21 153.35,27.75 C153.32,27.69 153.29,27.63 153.26,27.57 ZM 68.22 65.71 C66.99,66.52 66.15,67.00 65.94,67.00 C64.77,67.00 65.59,62.91 69.56,48.94 C71.36,42.59 72.77,36.57 72.67,35.58 C72.54,34.14 74.14,33.28 80.44,31.39 C90.97,28.22 93.77,28.25 94.60,31.54 C95.65,35.73 94.08,40.74 90.17,46.18 C92.92,42.24 94.40,38.53 94.44,35.27 C94.49,31.23 94.23,30.59 92.50,30.60 C85.11,30.64 71.92,35.32 73.82,37.22 C74.47,37.87 74.52,38.86 73.95,39.88 C73.45,40.77 71.95,45.78 70.61,51.00 C67.22,64.28 66.87,66.00 67.61,66.00 C67.69,66.00 67.90,65.90 68.22,65.71 ZM 142.58 121.51 C143.99,122.59 145.61,123.56 146.99,124.20 C145.92,123.77 144.80,123.19 143.73,122.46 C140.14,120.02 140.00,120.01 140.00,121.96 C140.00,124.45 136.25,124.80 135.32,122.40 C134.82,121.09 133.73,120.92 129.11,121.47 C126.02,121.84 121.83,122.63 119.78,123.22 C116.73,124.10 115.02,124.04 114.23,122.56 C114.23,122.56 114.23,122.56 114.23,122.57 C114.55,122.88 117.18,122.43 120.08,121.57 C122.99,120.71 127.12,120.00 129.26,120.00 C131.95,120.00 133.03,119.61 132.73,118.75 C132.42,117.87 130.17,117.59 125.06,117.80 C118.18,118.09 117.86,118.01 118.42,116.05 C118.74,114.92 119.25,113.13 119.55,112.06 C119.95,110.63 121.73,109.75 126.30,108.71 C132.19,107.38 134.24,107.09 134.68,109.34 C133.92,108.71 122.79,110.81 121.83,111.77 C121.40,112.20 120.93,113.66 120.78,115.02 C120.51,117.44 120.64,117.49 126.25,117.16 C131.08,116.88 132.11,117.12 132.72,118.66 C133.24,119.97 133.70,118.96 134.31,115.17 C134.41,114.57 134.49,113.98 134.56,113.43 C134.54,113.67 134.51,113.91 134.48,114.16 C134.01,118.24 134.17,120.51 135.02,121.53 C136.84,123.71 138.00,123.32 138.00,120.51 L 138.00 118.01 ZM 98.71 60.57 C97.35,65.49 96.66,70.06 96.60,74.36 C96.50,82.15 96.53,82.24 99.96,85.11 C103.86,88.36 108.31,88.88 111.75,86.47 C114.34,84.65 121.10,76.00 129.18,64.16 C132.38,59.47 135.00,56.27 135.00,57.06 C135.00,57.85 134.13,63.00 133.07,68.50 C131.88,74.69 131.17,79.84 130.94,84.07 C131.14,80.16 131.71,75.57 132.58,71.00 C133.36,66.88 134.00,62.87 134.00,62.09 C134.00,61.32 131.68,64.02 128.84,68.09 C123.09,76.34 116.54,84.59 113.62,87.25 C110.43,90.15 105.10,89.47 100.50,85.59 L 96.50 82.20 L 96.52 74.85 C96.54,70.18 97.28,65.34 98.71,60.57 ZM 119.59 30.49 C120.94,31.55 122.00,32.77 122.00,33.60 C122.00,34.41 120.94,37.19 119.65,39.78 C115.60,47.92 111.92,59.73 108.45,75.75 C108.18,76.99 108.35,78.00 108.82,78.00 C109.85,78.00 117.56,68.18 125.48,57.40 C121.06,63.54 116.89,69.14 114.32,72.23 C108.36,79.38 107.46,80.11 107.16,78.06 C106.41,72.85 113.94,46.27 118.89,36.66 C120.53,33.49 120.84,31.84 119.59,30.49 ZM 57.14 106.33 C55.14,108.44 52.67,110.61 51.65,111.17 C49.97,112.08 49.87,111.88 50.53,108.87 C52.22,101.15 53.61,98.61 56.58,97.80 C63.15,96.01 63.40,99.75 57.14,106.33 ZM 150.58 100.80 C149.80,102.28 146.87,105.74 144.07,108.48 L 138.97 113.45 L 140.59 107.98 C141.48,104.96 142.66,101.94 143.22,101.25 C143.79,100.56 143.85,99.99 143.37,99.97 C141.09,99.88 146.74,97.00 149.19,97.00 C152.43,97.00 152.49,97.17 150.58,100.80 ZM 29.60 115.10 C28.11,117.71 27.00,120.08 27.00,120.69 C27.00,121.11 27.05,121.43 27.15,121.65 C25.56,120.77 18.62,121.48 12.78,123.20 C9.90,124.05 8.71,124.01 7.49,122.99 C7.30,122.83 7.14,122.67 7.00,122.50 C7.56,122.77 8.48,122.80 9.36,122.53 C10.54,122.18 14.47,121.35 18.10,120.69 C26.75,119.13 26.90,117.42 18.34,117.78 L 11.77 118.06 L 12.47 114.28 C12.86,112.20 13.30,110.37 13.46,110.21 C13.61,110.06 16.49,109.42 19.85,108.79 C24.65,107.90 25.66,107.47 24.93,106.43 C25.94,107.29 26.11,108.32 24.94,109.06 C24.15,109.56 22.52,109.98 21.32,109.98 C20.11,109.99 17.95,110.45 16.50,111.00 C14.40,111.80 13.93,112.56 14.18,114.75 C14.49,117.40 14.68,117.49 19.65,117.17 C23.63,116.91 25.02,117.21 25.72,118.47 C26.41,119.70 27.18,119.08 29.60,115.10 ZM 38.47 93.28 C41.18,95.00 41.84,93.23 42.89,85.02 C43.52,80.07 44.89,71.90 45.93,66.85 C46.96,61.80 47.58,57.07 47.30,56.34 C47.15,55.96 47.15,55.70 47.33,55.55 C47.42,55.76 47.62,56.04 47.92,56.40 C49.11,57.84 49.06,58.34 45.59,78.00 C44.76,82.68 43.95,88.30 43.79,90.49 C43.46,95.01 41.80,95.91 38.47,93.28 ZM 109.57 122.18 C109.24,121.98 108.89,121.78 108.52,121.58 C101.27,117.67 101.26,117.07 108.42,109.92 C115.06,103.28 117.11,99.13 115.03,96.54 C115.10,96.59 115.16,96.65 115.23,96.71 C116.81,98.14 117.44,98.21 119.15,97.14 C119.85,96.70 121.69,96.21 123.90,95.83 C120.15,96.69 116.97,98.09 117.17,99.48 C117.32,100.51 116.71,102.43 114.79,107.00 C114.36,108.01 114.04,110.39 113.86,112.99 C113.76,111.66 113.50,110.81 113.08,110.55 C111.79,109.75 104.22,115.80 104.08,117.72 C104.04,118.39 105.80,119.97 107.99,121.22 C108.55,121.54 109.09,121.87 109.57,122.18 ZM 58.53 64.75 C57.60,68.74 56.51,72.00 56.10,72.00 C55.69,72.00 55.72,68.96 56.15,65.25 C57.31,55.41 59.98,44.00 61.13,44.00 C61.67,44.00 61.86,44.42 61.55,44.93 C61.23,45.44 60.80,48.47 60.59,51.68 C60.38,54.88 59.45,60.76 58.53,64.75 ZM 57.15 106.25 C62.98,100.12 62.85,97.10 56.86,99.36 C55.22,99.98 53.96,101.37 53.61,102.94 C53.30,104.35 52.76,106.51 52.41,107.75 C51.47,111.03 53.11,110.51 57.15,106.25 ZM 44.88 121.86 C44.97,121.97 45.07,122.06 45.17,122.13 C47.24,123.44 48.00,123.16 48.00,121.08 C48.00,117.66 49.15,116.02 52.76,114.31 C54.71,113.38 58.04,110.98 60.15,108.97 C62.27,106.96 64.00,105.61 64.00,105.99 C64.00,106.36 63.48,109.23 62.86,112.37 C62.43,114.49 62.27,116.39 62.33,117.97 C62.22,116.71 62.27,115.36 62.49,114.06 C63.21,109.79 62.22,108.82 59.95,111.56 C59.24,112.41 56.71,114.26 54.33,115.65 C50.80,117.72 50.00,118.73 50.00,121.10 C50.00,124.35 47.86,125.00 45.36,122.50 C45.18,122.32 45.02,122.11 44.88,121.86 ZM 44.00 40.17 C44.00,41.92 44.67,44.08 45.48,44.98 C44.67,44.08 44.00,42.59 44.00,41.67 C44.00,40.75 43.60,40.00 43.12,40.00 C42.03,40.00 33.00,49.83 33.00,51.01 C33.00,51.89 36.22,52.59 41.53,52.85 C42.03,52.87 42.46,52.88 42.83,52.84 C41.79,52.99 40.28,53.00 37.95,53.00 C34.31,53.00 31.04,52.70 30.67,52.34 C29.54,51.21 41.15,37.00 43.20,37.00 C43.64,37.00 44.00,38.43 44.00,40.17 ZM 31.67 58.84 C29.12,58.05 28.39,58.19 27.33,59.24 C25.74,60.83 20.00,74.45 20.00,76.64 C20.00,77.91 20.88,77.86 22.59,76.53 C19.82,78.94 18.00,79.84 18.00,78.52 C18.00,76.07 21.93,64.93 24.27,60.75 C26.28,57.15 29.18,55.86 30.49,57.98 C30.65,58.24 31.08,58.54 31.67,58.84 ZM 154.54 97.05 C157.53,100.54 156.30,103.79 149.45,110.80 L 142.90 117.50 L 145.97 120.25 C146.27,120.52 146.58,120.78 146.90,121.03 C141.02,118.00 140.99,116.32 146.03,111.67 C153.32,104.96 156.21,99.75 154.54,97.05 ZM 151.00 99.56 C151.00,97.89 150.10,97.64 147.58,98.61 C146.05,99.19 141.98,107.09 142.02,109.38 C142.06,111.11 151.00,101.33 151.00,99.56 ZM 22.75 105.28 C21.88,105.19 20.74,105.26 19.22,105.49 C14.96,106.13 14.84,106.07 15.51,103.82 C16.51,100.48 18.69,99.11 24.21,98.38 C31.79,97.37 29.59,95.47 21.04,95.64 C19.26,95.68 17.83,95.73 16.66,95.85 C17.86,95.63 19.22,95.45 20.60,95.33 C26.32,94.85 27.79,95.04 28.92,96.40 C30.68,98.52 30.31,98.82 24.47,99.91 C21.75,100.41 19.01,101.63 18.25,102.66 C17.01,104.35 17.19,104.53 20.37,104.81 C21.24,104.88 22.05,105.05 22.75,105.28 ZM 73.07 96.56 C74.30,97.74 74.80,99.00 74.39,99.94 C72.90,103.38 69.00,115.51 69.00,116.71 C69.00,117.57 70.50,118.00 73.52,118.00 L 75.16 118.00 L 72.91 118.15 C70.11,118.34 67.61,118.17 67.36,117.77 C66.80,116.87 70.70,103.51 72.58,99.85 C73.51,98.05 73.69,97.34 73.07,96.56 ZM 134.10 102.60 C135.27,101.11 135.98,99.64 135.67,99.33 C134.89,98.55 125.12,100.99 124.41,102.15 C123.19,104.12 124.87,105.50 128.36,105.40 C128.44,105.40 128.52,105.39 128.60,105.39 C128.09,105.45 127.52,105.50 126.89,105.55 C121.81,105.90 121.81,105.90 122.49,103.20 C123.35,99.77 122.76,100.13 129.82,98.69 C134.55,97.72 135.71,97.14 135.04,96.07 C134.70,95.52 133.81,95.19 132.60,95.04 C134.72,95.08 135.33,95.56 136.10,96.79 C137.38,98.83 137.40,98.84 141.15,96.92 C142.59,96.19 144.15,95.67 145.68,95.36 C141.64,96.27 137.35,98.79 134.61,102.05 C134.34,102.38 134.08,102.67 133.83,102.93 C133.92,102.82 134.01,102.71 134.10,102.60 ZM 14.29 88.66 C18.71,90.92 23.27,89.78 28.73,85.11 L 33.50 81.02 L 33.72 82.87 L 30.75 85.69 C26.72,89.51 22.12,91.78 19.55,91.21 C18.16,90.90 16.20,89.91 14.29,88.66 ZM 111.77 100.26 C113.03,98.10 112.88,98.00 111.31,98.04 C109.63,98.07 103.71,100.89 105.15,100.96 C105.51,100.98 104.92,103.36 103.83,106.25 L 101.90 111.37 C100.69,112.37 99.96,112.74 100.20,112.00 C100.48,111.18 101.50,108.03 102.47,105.00 C104.46,98.76 106.16,97.00 110.19,97.00 C113.05,97.00 113.58,97.49 111.77,100.26 ZM 63.37 121.87 C63.96,122.65 64.77,122.91 65.77,122.51 C66.72,122.14 69.71,121.48 72.40,121.04 C76.42,120.39 77.90,120.60 80.60,122.19 C81.19,122.54 81.70,122.82 82.17,123.03 C79.13,122.33 71.94,122.45 67.91,123.36 C64.85,124.04 64.32,123.99 63.37,121.87 ZM 85.60 118.72 C82.91,121.95 81.84,121.48 82.19,117.29 C82.44,114.31 82.99,113.44 85.00,112.89 C86.02,112.61 86.62,112.44 86.80,112.33 C88.30,113.98 88.51,114.01 89.61,112.52 C88.93,113.92 88.12,115.31 87.18,116.65 C87.88,115.26 87.63,115.00 86.04,115.00 C84.67,115.00 84.00,115.66 84.00,117.00 C84.00,118.10 84.43,119.00 84.96,119.00 C85.14,119.00 85.37,118.90 85.60,118.72 ZM 86.68 112.19 C86.42,112.15 85.92,112.13 85.18,112.10 C83.26,112.02 82.98,111.62 83.54,109.75 C83.91,108.51 84.88,106.44 85.70,105.14 C86.74,103.49 86.75,102.13 86.09,101.49 C86.30,101.62 86.56,101.77 86.87,101.93 L 88.97 103.06 L 87.01 106.72 C85.18,110.13 85.14,110.49 86.68,112.19 ZM 27.49 121.97 C28.19,122.19 29.57,120.76 31.12,118.00 C32.36,115.80 33.70,114.00 34.11,114.00 C34.40,114.00 34.94,114.84 35.45,116.05 C34.85,115.94 33.82,117.16 32.70,119.50 C31.07,122.93 28.81,123.99 27.49,121.97 ZM 79.26 25.08 C71.76,26.90 63.15,31.04 56.36,36.54 L 53.22 39.09 L 54.83 34.59 L 56.32 30.47 C57.20,31.80 57.59,32.89 57.37,33.48 C56.56,35.59 57.01,35.45 63.34,31.64 C68.74,28.39 74.24,26.17 79.26,25.08 ZM 48.81 55.44 C49.12,55.48 49.48,55.55 49.89,55.63 C52.71,56.19 53.00,56.01 53.00,53.75 C53.00,52.37 53.61,50.74 54.36,50.11 C55.42,49.24 55.30,50.75 53.86,56.74 C52.99,60.36 52.04,67.21 51.56,73.12 C51.94,67.68 52.50,62.48 52.91,60.75 C53.74,57.22 53.65,57.00 51.39,57.00 C50.08,57.00 49.00,56.55 49.00,56.00 C49.00,55.79 48.93,55.60 48.81,55.44 ZM 85.72 101.24 C85.08,100.95 84.10,101.08 82.93,101.81 C80.95,103.05 80.95,103.01 82.57,100.53 C84.82,97.10 88.88,96.11 90.66,98.54 C91.78,100.09 92.17,102.34 91.90,104.93 C92.11,101.80 91.38,99.63 89.77,98.62 C88.44,97.79 87.66,97.92 86.40,99.17 C85.29,100.28 85.01,100.69 85.72,101.24 ZM 51.11 80.65 C50.80,87.14 51.05,88.06 52.73,89.81 L 50.70 87.91 ZM 0.19 109.75 C0.33,92.16 0.62,85.55 1.09,89.50 C1.36,91.77 1.83,94.56 2.34,97.03 C1.85,94.79 1.39,92.37 1.12,90.48 C0.63,87.13 0.33,93.26 0.19,109.75 ZM 101.22 0.30 C91.58,0.46 88.15,0.73 90.94,1.09 C96.26,1.77 102.01,3.19 107.39,5.07 C101.63,3.07 95.46,1.63 89.73,1.03 C86.74,0.72 90.97,0.46 101.22,0.30 ZM 0.29 58.72 C0.45,68.71 0.72,72.18 1.11,69.50 C1.65,65.76 2.43,62.11 3.43,58.57 C2.34,62.49 1.54,66.54 1.06,70.68 C0.71,73.62 0.45,69.38 0.29,58.72 ZM 58.57 3.43 C62.11,2.43 65.76,1.65 69.50,1.11 C72.18,0.72 68.71,0.45 58.72,0.29 C69.38,0.45 73.62,0.71 70.68,1.06 C66.54,1.54 62.49,2.34 58.57,3.43 ZM 24.96 38.61 C17.54,46.40 11.29,56.31 8.42,65.60 C8.72,64.59 9.06,63.57 9.45,62.55 C12.68,53.96 18.40,45.43 24.96,38.61 ZM 34.00 85.14 L 34.06 85.65 C34.28,87.42 34.65,88.84 35.22,89.97 C34.35,88.70 34.00,87.45 34.00,85.90 ZM 150.54 123.00 C151.35,123.01 152.00,123.46 152.00,124.00 C152.00,124.76 151.24,125.07 150.08,124.99 C152.25,124.90 152.40,124.23 150.54,123.00 ZM 12.31 38.30 C18.82,27.70 27.70,18.82 38.30,12.31 C27.74,18.82 18.82,27.74 12.31,38.30 ZM 97.04 100.45 C99.26,97.78 103.49,95.92 107.43,95.34 C103.48,96.03 99.13,97.93 97.04,100.45 ZM 93.45 113.26 C93.46,113.23 93.47,113.20 93.48,113.17 C94.04,111.33 94.57,110.98 94.89,111.79 C94.60,111.49 94.12,111.98 93.45,113.26 ZM 145.51 26.98 C146.57,25.74 147.81,25.09 149.07,25.07 C147.86,25.31 146.51,26.07 145.51,26.98 ZM 68.17 97.63 C70.22,95.18 70.68,94.66 71.81,95.48 C70.81,94.89 70.08,95.37 68.17,97.63 ZM 13.79 96.55 C12.90,96.98 12.24,97.61 11.64,98.56 C11.98,97.93 12.27,97.45 12.49,97.21 C12.68,96.99 13.14,96.77 13.79,96.55 ZM 36.00 117.50 C36.35,118.56 36.91,119.61 37.57,120.53 C36.67,119.44 36.00,118.29 36.00,117.55 C36.00,117.53 36.00,117.51 36.00,117.50 ZM 6.73 76.48 C6.79,79.52 7.36,81.83 8.61,83.78 C8.50,83.64 8.41,83.50 8.32,83.36 C7.29,81.79 6.76,79.37 6.73,76.48 ZM 58.57 3.43 C51.31,5.49 44.51,8.49 38.30,12.31 C44.53,8.46 51.35,5.45 58.57,3.43 ZM 51.77 96.51 C50.09,97.21 49.54,97.12 49.25,96.24 C48.86,95.09 47.93,94.78 46.58,95.25 C47.92,94.77 48.86,95.07 49.23,96.20 C49.48,96.94 50.13,97.05 51.77,96.51 ZM 114.00 122.03 C113.68,121.10 113.60,119.77 113.69,117.98 C113.70,119.75 113.80,121.24 114.00,122.03 ZM 88.79 120.56 C89.93,119.31 91.06,117.79 91.96,116.33 C91.09,117.90 89.97,119.37 88.79,120.56 ZM 37.00 60.63 L 35.33 60.07 L 37.09 60.52 ZM 102.63 110.74 L 105.56 107.90 C104.52,108.98 103.50,109.97 102.63,110.74 ZM 31.33 112.16 C33.64,108.12 33.70,107.03 33.07,102.43 C33.71,107.13 33.64,108.19 31.33,112.16 ZM 113.94 28.84 C114.19,28.57 114.40,28.40 114.55,28.34 C114.76,28.26 115.02,28.25 115.31,28.29 C114.85,28.30 114.41,28.47 113.94,28.84 ZM 52.17 25.70 C50.56,24.29 49.52,24.18 47.05,24.63 C47.03,24.63 47.00,24.64 46.98,24.64 C47.02,24.63 47.07,24.62 47.12,24.62 C49.54,24.18 50.52,24.21 52.17,25.70 ZM 64.99 99.80 C65.16,100.06 65.31,100.21 65.50,100.22 C65.18,100.37 65.00,100.33 65.00,100.04 C65.00,99.96 65.00,99.88 64.99,99.80 ZM 30.52 68.29 L 32.88 65.52 L 31.19 67.53 C30.23,68.67 29.28,69.76 28.36,70.77 C29.04,70.01 29.76,69.18 30.52,68.29 ZM 45.77 49.81 C45.21,51.27 44.89,52.06 44.06,52.49 C44.76,52.08 45.21,51.27 45.77,49.81 ZM 7.02 120.26 C7.26,119.23 7.25,117.08 6.97,114.83 C7.28,117.22 7.28,119.41 7.02,120.26 ZM 143.57 30.56 C143.59,30.49 143.61,30.43 143.64,30.38 C143.75,30.05 143.87,29.75 144.00,29.45 C144.00,29.47 144.00,29.49 144.00,29.51 C144.00,29.66 143.85,30.02 143.57,30.56 ZM 4.35 107.24 C4.07,107.70 3.76,111.06 3.64,114.90 C3.76,111.06 4.06,107.71 4.34,107.25 C4.53,106.95 4.44,105.80 4.15,104.32 C4.45,105.79 4.54,106.93 4.35,107.24 ZM 41.37 123.58 C41.60,123.61 41.82,123.58 42.01,123.49 C41.99,123.50 41.97,123.52 41.95,123.53 C41.80,123.62 41.60,123.63 41.37,123.58 ZM 6.95 114.69 C6.58,111.83 6.59,109.27 6.98,109.00 C6.59,109.27 6.58,111.82 6.95,114.69 ZM 77.40 104.23 C77.68,102.76 78.30,101.63 79.45,99.90 C78.30,101.63 77.68,102.76 77.40,104.23 ZM 41.90 120.70 C41.79,120.38 41.67,120.06 41.54,119.73 C41.67,120.06 41.80,120.39 41.90,120.70 Z" fill="rgb(149,34,39)"/>
<path d="M 12.14 38.57 C18.68,27.68 27.68,18.68 38.57,12.14 L 38.57 12.14 C38.61,12.12 38.64,12.10 38.67,12.08 L 38.30 12.31 C27.74,18.82 18.82,27.74 12.31,38.30 C12.25,38.39 12.19,38.48 12.14,38.57 ZM 91.35 0.63 L 99.00 2.56 C99.68,2.73 100.39,2.93 101.14,3.14 C97.70,2.22 94.23,1.51 90.94,1.09 C89.56,0.91 89.70,0.76 91.35,0.63 ZM 0.67 90.49 C0.80,89.30 0.94,89.31 1.12,90.48 C1.39,92.37 1.85,94.79 2.34,97.03 C2.35,97.06 2.36,97.09 2.36,97.12 ZM 64.72 1.94 C66.74,1.40 68.38,0.93 69.25,0.65 C70.66,0.78 70.74,0.93 69.50,1.11 C67.89,1.34 66.30,1.62 64.72,1.94 ZM 0.65 69.25 C0.93,68.38 1.40,66.74 1.94,64.72 C1.62,66.30 1.34,67.89 1.11,69.50 C0.93,70.74 0.78,70.66 0.65,69.25 ZM 3.64 114.90 C3.63,115.15 3.63,115.41 3.62,115.67 C3.72,111.52 4.01,107.77 4.28,107.32 C4.47,106.98 4.07,104.47 3.34,101.17 C3.36,101.25 3.39,101.34 3.41,101.42 C3.72,102.43 3.97,103.44 4.15,104.32 C4.44,105.80 4.53,106.95 4.34,107.25 C4.06,107.71 3.76,111.06 3.64,114.90 ZM 134.44 21.24 C136.71,23.14 138.47,24.83 139.27,25.97 L 139.88 26.85 L 138.89 25.59 C137.99,24.45 136.41,22.92 134.44,21.24 ZM 6.95 114.68 C6.93,114.52 6.91,114.36 6.89,114.20 C6.91,114.36 6.93,114.52 6.95,114.68 Z" fill="rgb(191,153,156)"/>
<path d="M 0.08 124.25 L 0.16 88.50 L 2.46 97.50 C3.72,102.45 4.54,106.87 4.28,107.32 C4.01,107.77 3.72,111.52 3.62,115.67 C3.45,122.62 3.63,123.35 5.94,125.17 C7.71,126.56 9.33,126.97 11.47,126.57 C14.22,126.06 15.06,126.63 20.44,132.64 C32.42,146.04 47.04,154.43 65.50,158.51 C70.90,159.71 67.91,159.85 35.75,159.92 L 0.00 160.00 L 0.08 124.25 ZM 95.50 158.51 C104.42,156.54 110.75,154.23 118.00,150.30 C124.75,146.63 136.10,138.11 138.26,135.07 C138.94,134.12 140.71,131.91 142.19,130.16 C144.62,127.29 145.13,127.10 147.44,128.15 C153.58,130.95 157.90,124.14 151.83,121.24 L 149.16 119.97 L 154.17 110.89 C157.43,104.98 159.00,101.07 158.67,99.66 C158.39,98.47 158.52,95.70 158.97,93.50 C159.44,91.14 159.82,103.99 159.88,124.75 L 160.00 160.00 L 124.75 159.92 C93.00,159.85 90.10,159.71 95.50,158.51 ZM 104.79 122.50 C100.50,119.59 100.00,119.48 100.00,121.50 C100.00,122.32 99.38,123.00 98.62,123.00 C96.23,123.00 94.83,120.24 95.13,116.09 C95.46,111.46 94.51,109.78 93.48,113.17 C92.52,116.32 88.37,121.73 85.90,123.05 C84.33,123.90 83.17,123.71 80.60,122.19 C77.90,120.60 76.42,120.39 72.40,121.04 C69.71,121.48 66.72,122.14 65.77,122.51 C62.81,123.68 61.50,119.13 62.86,112.37 C63.48,109.23 64.00,106.36 64.00,105.99 C64.00,105.61 62.27,106.96 60.15,108.97 C58.04,110.98 54.71,113.38 52.76,114.31 C49.15,116.02 48.00,117.66 48.00,121.08 C48.00,123.16 47.24,123.44 45.17,122.13 C44.25,121.54 43.93,119.37 44.10,115.01 C44.31,109.90 44.02,108.49 42.53,107.40 C41.53,106.67 40.28,106.33 39.76,106.65 C38.60,107.37 39.67,115.25 41.54,119.73 C42.27,121.50 42.53,123.17 42.10,123.44 C40.62,124.35 37.15,120.97 36.00,117.50 C35.36,115.57 34.51,114.00 34.11,114.00 C33.70,114.00 32.36,115.80 31.12,118.00 C28.89,121.97 27.00,123.20 27.00,120.69 C27.00,119.97 28.54,116.83 30.42,113.71 C33.62,108.39 33.78,107.69 33.07,102.43 C32.48,98.09 32.62,96.70 33.67,96.30 C35.56,95.57 38.00,97.84 38.00,100.33 C38.00,102.15 38.47,101.95 41.79,98.70 C45.64,94.94 48.50,94.00 49.25,96.24 C49.57,97.22 50.22,97.22 52.38,96.24 C58.15,93.61 65.00,95.67 65.00,100.04 C65.00,100.80 66.29,99.88 67.87,97.98 C70.35,95.02 70.96,94.73 72.35,95.87 C73.74,97.03 73.77,97.55 72.58,99.85 C70.70,103.51 66.80,116.87 67.36,117.77 C67.61,118.17 70.11,118.34 72.91,118.15 L 78.02 117.81 L 77.46 110.78 C76.95,104.41 77.14,103.39 79.45,99.90 C83.51,93.77 90.43,93.36 93.89,99.05 C95.52,101.73 95.85,101.88 97.04,100.45 C100.88,95.82 112.34,93.29 114.99,96.49 C117.14,99.07 115.10,103.23 108.42,109.92 C101.26,117.07 101.27,117.67 108.52,121.58 C110.44,122.61 112.00,123.80 112.00,124.23 C112.00,125.80 108.36,124.93 104.79,122.50 ZM 86.42 117.70 C91.64,110.85 93.50,102.44 90.66,98.54 C88.88,96.11 84.82,97.10 82.57,100.53 C80.95,103.01 80.95,103.05 82.93,101.81 C85.95,99.93 87.68,102.01 85.70,105.14 C84.88,106.44 83.91,108.51 83.54,109.75 C82.98,111.62 83.26,112.02 85.18,112.10 C87.46,112.20 87.46,112.21 85.00,112.89 C82.99,113.44 82.44,114.31 82.19,117.29 C81.81,121.88 83.13,122.00 86.42,117.70 ZM 110.12 102.60 C113.70,97.75 113.71,97.00 110.19,97.00 C106.16,97.00 104.46,98.76 102.47,105.00 C101.50,108.03 100.48,111.18 100.20,112.00 C99.50,114.09 106.64,107.33 110.12,102.60 ZM 57.14 106.33 C63.40,99.75 63.15,96.01 56.58,97.80 C53.61,98.61 52.22,101.15 50.53,108.87 C49.87,111.88 49.97,112.08 51.65,111.17 C52.67,110.61 55.14,108.44 57.14,106.33 ZM 142.58 121.51 L 138.00 118.01 L 138.00 120.51 C138.00,123.32 136.84,123.71 135.02,121.53 C134.17,120.51 134.01,118.24 134.48,114.16 C135.31,107.05 134.89,106.77 126.30,108.71 C121.73,109.75 119.95,110.63 119.55,112.06 C119.25,113.13 118.74,114.92 118.42,116.05 C117.86,118.01 118.18,118.09 125.06,117.80 C130.17,117.59 132.42,117.87 132.73,118.75 C133.03,119.61 131.95,120.00 129.26,120.00 C127.12,120.00 122.99,120.71 120.08,121.57 C117.18,122.43 114.55,122.88 114.23,122.57 C113.26,121.59 113.68,109.62 114.79,107.00 C116.71,102.43 117.32,100.51 117.17,99.48 C116.71,96.37 133.27,93.21 135.04,96.07 C135.71,97.14 134.55,97.72 129.82,98.69 C122.76,100.13 123.35,99.77 122.49,103.20 C121.81,105.90 121.81,105.90 126.89,105.55 C131.13,105.25 132.40,104.68 134.61,102.05 C138.07,97.94 143.97,95.00 148.76,95.00 C157.99,95.00 156.90,101.66 146.03,111.67 C140.74,116.54 141.03,118.16 147.80,121.48 C152.48,123.78 153.10,125.00 149.58,125.00 C148.24,125.00 145.09,123.43 142.58,121.51 ZM 150.58 100.80 C152.49,97.17 152.43,97.00 149.19,97.00 C146.74,97.00 141.09,99.88 143.37,99.97 C143.85,99.99 143.79,100.56 143.22,101.25 C142.66,101.94 141.48,104.96 140.59,107.98 L 138.97 113.45 L 144.07 108.48 C146.87,105.74 149.80,102.28 150.58,100.80 ZM 6.60 122.16 C6.25,121.60 6.35,120.90 6.81,120.62 C7.27,120.33 7.34,117.71 6.96,114.80 C6.58,111.88 6.59,109.28 6.98,109.00 C7.37,108.72 8.50,106.25 9.50,103.50 C12.14,96.24 12.78,95.81 21.04,95.64 C29.59,95.47 31.79,97.37 24.21,98.38 C18.69,99.11 16.51,100.48 15.51,103.82 C14.84,106.07 14.96,106.13 19.22,105.49 C22.43,105.01 23.93,105.21 24.79,106.24 C25.76,107.42 24.93,107.85 19.85,108.79 C16.49,109.42 13.61,110.06 13.46,110.21 C13.30,110.37 12.86,112.20 12.47,114.28 L 11.77 118.06 L 18.34 117.78 C26.90,117.42 26.75,119.13 18.10,120.69 C14.47,121.35 10.54,122.18 9.36,122.53 C8.19,122.88 6.94,122.72 6.60,122.16 ZM 133.22 92.99 C132.00,91.85 130.96,90.15 130.91,89.21 C130.64,84.24 131.35,77.47 133.07,68.50 C134.13,63.00 135.00,57.85 135.00,57.06 C135.00,56.27 132.38,59.47 129.18,64.16 C121.10,76.00 114.34,84.65 111.75,86.47 C108.31,88.88 103.86,88.36 99.96,85.11 C96.53,82.24 96.50,82.15 96.60,74.36 C96.73,64.55 100.17,53.39 107.27,39.73 C113.31,28.11 114.16,27.21 117.48,28.99 C120.88,30.81 121.15,32.28 118.89,36.66 C113.94,46.27 106.41,72.85 107.16,78.06 C107.46,80.11 108.36,79.38 114.32,72.23 C122.02,62.98 144.00,31.35 144.00,29.51 C144.00,27.66 147.41,25.00 149.80,25.00 C151.14,25.00 152.48,26.04 153.35,27.75 C154.61,30.21 154.50,31.34 152.33,38.50 C148.66,50.59 141.97,76.43 140.02,86.00 C138.14,95.22 136.94,96.46 133.22,92.99 ZM 36.92 92.14 C35.35,90.86 34.45,88.81 34.06,85.65 L 33.50 81.02 L 28.73 85.11 C22.86,90.13 18.03,91.07 13.30,88.10 C8.27,84.94 6.56,81.53 6.74,75.02 C7.28,55.55 29.47,27.82 47.05,24.63 C50.14,24.07 50.99,24.39 53.53,27.03 L 56.45 30.08 L 54.83 34.59 L 53.22 39.09 L 56.36 36.54 C67.81,27.27 84.38,21.88 92.18,24.89 C93.46,25.38 96.19,27.48 98.25,29.56 C101.55,32.88 102.00,33.91 102.00,38.21 C102.00,46.11 96.90,54.15 86.56,62.58 C78.06,69.51 70.33,73.90 67.82,73.24 C66.30,72.85 65.91,73.04 66.44,73.91 C66.92,74.69 66.46,75.33 65.19,75.66 C62.72,76.31 62.03,78.70 62.01,86.75 L 62.00 93.00 L 58.95 93.00 C57.01,93.00 54.97,92.06 53.31,90.40 C50.72,87.81 50.71,87.74 51.35,76.15 C51.70,69.74 52.83,61.01 53.86,56.74 C55.30,50.75 55.42,49.24 54.36,50.11 C53.61,50.74 53.00,52.37 53.00,53.75 C53.00,56.01 52.71,56.19 49.89,55.63 C47.55,55.16 46.91,55.33 47.30,56.34 C47.58,57.07 46.96,61.80 45.93,66.85 C44.89,71.90 43.52,80.07 42.89,85.02 C41.66,94.60 40.97,95.42 36.92,92.14 ZM 31.19 67.53 L 37.09 60.52 L 34.09 59.74 C32.45,59.32 30.82,58.53 30.49,57.98 C29.18,55.86 26.28,57.15 24.27,60.75 C21.93,64.93 18.00,76.07 18.00,78.52 C18.00,80.98 24.27,75.75 31.19,67.53 ZM 58.53 64.75 C59.45,60.76 60.38,54.88 60.59,51.68 C60.80,48.47 61.23,45.44 61.55,44.93 C61.86,44.42 61.67,44.00 61.13,44.00 C59.98,44.00 57.31,55.41 56.15,65.25 C55.72,68.96 55.69,72.00 56.10,72.00 C56.51,72.00 57.60,68.74 58.53,64.75 ZM 74.66 61.14 C89.31,50.17 96.57,39.40 94.60,31.54 C93.77,28.25 90.97,28.22 80.44,31.39 C74.14,33.28 72.54,34.14 72.67,35.58 C72.77,36.57 71.36,42.59 69.56,48.94 C65.59,62.91 64.77,67.00 65.94,67.00 C66.43,67.00 70.35,64.36 74.66,61.14 ZM 45.77 49.81 C46.76,47.18 46.71,46.34 45.48,44.98 C44.67,44.08 44.00,41.92 44.00,40.17 C44.00,38.43 43.64,37.00 43.20,37.00 C41.15,37.00 29.54,51.21 30.67,52.34 C31.04,52.70 34.31,53.00 37.95,53.00 C44.47,53.00 44.58,52.95 45.77,49.81 ZM 158.71 66.25 C158.39,63.64 157.13,58.50 155.90,54.83 L 153.66 48.16 L 155.91 40.58 C158.57,31.63 158.12,28.12 153.85,24.53 C149.91,21.21 147.51,21.34 143.80,25.05 L 140.75 28.09 L 139.27 25.97 C136.58,22.14 123.16,12.19 115.76,8.54 C111.77,6.58 104.22,3.88 99.00,2.56 L 89.50 0.16 L 124.75 0.08 L 160.00 0.00 L 160.00 35.50 C160.00,55.03 159.84,71.00 159.64,71.00 C159.44,71.00 159.02,68.86 158.71,66.25 ZM 0.00 35.17 L 0.00 0.00 L 35.17 0.00 C54.51,0.00 70.15,0.17 69.92,0.38 C69.69,0.59 65.69,1.72 61.04,2.89 C31.71,10.24 10.24,31.71 2.89,61.04 C1.72,65.69 0.59,69.69 0.38,69.92 C0.17,70.15 0.00,54.51 0.00,35.17 Z" fill="rgb(251,247,246)"/>
</g>
</svg>